<?xml version="1.0" encoding="utf-8"?>
<!-- Generator: Adobe Illustrator 28.0.0, SVG Export Plug-In . SVG Version: 6.00 Build 0)  -->
<svg version="1.1" xmlns="http://www.w3.org/2000/svg" xmlns:xlink="http://www.w3.org/1999/xlink" x="0px" y="0px"
	 viewBox="0 0 550 550" style="enable-background:new 0 0 550 550;" xml:space="preserve">
<style type="text/css">
	.st0{fill:#134678;}
</style>
<g id="Dervox">
	<g>
		<g>
			<path class="st0" d="M299.58,508.57C257.44,534.83,207.66,550,154.34,550H0v-41.43H299.58z"/>
			<path class="st0" d="M364.23,452.71c-11.45,13.49-24.14,25.85-37.94,36.93H0v-36.93H364.23z"/>
			<path class="st0" d="M401.18,396.37c-5.72,11.62-12.23,22.77-19.49,33.38H0v-33.38H401.18z"/>
			<path class="st0" d="M421.49,340.51c-2.49,10.17-5.54,20.13-9.13,29.83H0v-29.83H421.49z"/>
			<path class="st0" d="M429.15,285.59c-0.33,8.46-1.02,16.84-2.1,25.1H0v-25.1H429.15z"/>
			<path class="st0" d="M428.3,250.88H0v-21.46h425.6C426.76,236.49,427.67,243.63,428.3,250.88z"/>
			<path class="st0" d="M416.41,191.38H0v-17.6h410.13C412.42,179.56,414.51,185.43,416.41,191.38z"/>
			<path class="st0" d="M389.57,132.44H0v-12.33h381.61C384.37,124.15,387.02,128.25,389.57,132.44z"/>
			<path class="st0" d="M336.76,69.2H0V60.3h326.22C329.8,63.19,333.32,66.14,336.76,69.2z"/>
			<path class="st0" d="M216.51,7.06H0V0h154.34C175.72,0,196.52,2.44,216.51,7.06z"/>
			<path class="st0" d="M420.43,41.43C378.29,15.17,328.51,0,275.19,0H120.85v41.43H420.43z"/>
			<path class="st0" d="M485.08,97.29c-11.45-13.49-24.14-25.85-37.94-36.93H120.85v36.93H485.08z"/>
			<path class="st0" d="M522.03,153.63c-5.72-11.62-12.23-22.77-19.49-33.38h-381.7v33.38H522.03z"/>
			<path class="st0" d="M542.34,209.49c-2.49-10.17-5.54-20.13-9.13-29.83H120.85v29.83H542.34z"/>
			<path class="st0" d="M550,264.41c-0.33-8.46-1.02-16.84-2.1-25.1H120.85v25.1H550z"/>
			<path class="st0" d="M549.15,299.12h-428.3v21.46h425.6C547.61,313.51,548.52,306.37,549.15,299.12z"/>
			<path class="st0" d="M537.26,358.62H120.85v17.6h410.13C533.27,370.44,535.36,364.57,537.26,358.62z"/>
			<path class="st0" d="M510.42,417.56H120.85v12.33h381.61C505.22,425.85,507.87,421.75,510.42,417.56z"/>
			<path class="st0" d="M457.61,480.8H120.85v8.89h326.22C450.65,486.81,454.17,483.86,457.61,480.8z"/>
			<path class="st0" d="M337.36,542.94H120.85V550h154.34C296.57,550,317.37,547.56,337.36,542.94z"/>
		</g>
	</g>
</g>
<g id="Guides">
</g>
</svg>
